<?xml version="1.0" encoding="UTF-8" standalone="no"?>
<!-- Created with Inkscape (http://www.inkscape.org/) -->

<svg
   version="1.1"
   id="svg2"
   width="280"
   height="60"
   viewBox="0 0 280.00001 60"
   sodipodi:docname="LogoMySMartProcess.svg"
   inkscape:version="1.1.1 (3bf5ae0d25, 2021-09-20)"
   xmlns:inkscape="http://www.inkscape.org/namespaces/inkscape"
   xmlns:sodipodi="http://sodipodi.sourceforge.net/DTD/sodipodi-0.dtd"
   xmlns="http://www.w3.org/2000/svg"
   xmlns:svg="http://www.w3.org/2000/svg">
  <defs
     id="defs6" />
  <sodipodi:namedview
     id="namedview4"
     pagecolor="#505050"
     bordercolor="#ffffff"
     borderopacity="1"
     inkscape:pageshadow="0"
     inkscape:pageopacity="0"
     inkscape:pagecheckerboard="1"
     showgrid="false"
     inkscape:zoom="4.8560867"
     inkscape:cx="101.21319"
     inkscape:cy="2.9859434"
     inkscape:window-width="1852"
     inkscape:window-height="1051"
     inkscape:window-x="0"
     inkscape:window-y="0"
     inkscape:window-maximized="1"
     inkscape:current-layer="g8" />
  <g
     inkscape:groupmode="layer"
     inkscape:label="Image"
     id="g8">
    <g
       id="g6686"
       transform="matrix(0.10606149,0,0,0.10606149,26.111786,-75.867467)">
      <path
         style="fill:#d8055b;fill-opacity:1;stroke-width:0.32"
         d="m 214.81307,1280.1612 c -3.28277,-1.35 -4.93896,-2.9851 -6.52195,-6.439 -1.16127,-2.5338 -1.2197,-6.113 -0.14472,-8.8655 1.32151,-3.3837 4.90367,-6.4837 8.36639,-7.2401 0.89007,-0.1945 23.87198,-0.3403 61.10662,-0.3877 l 59.68,-0.076 1.83893,0.714 c 2.55733,0.9928 5.07963,3.3785 6.39336,6.0471 0.94488,1.9193 1.04541,2.3958 1.02425,4.8549 -0.0299,3.482 -0.87936,5.7674 -3.0099,8.0985 -1.82321,1.9949 -4.26133,3.3202 -6.90435,3.753 -1.1857,0.1942 -24.14263,0.3094 -60.94229,0.3058 l -59.04,-0.01 z m -13.33154,-56.2498 c -1.90906,-0.326 -5.01655,-2.091 -6.32633,-3.5933 -0.62455,-0.7163 -1.5136,-2.0944 -1.97567,-3.0624 -0.73351,-1.5367 -0.84011,-2.1661 -0.84006,-4.96 6e-5,-2.8614 0.0955,-3.3944 0.90142,-5.0362 1.80126,-3.6693 5.28054,-6.1339 9.40064,-6.659 1.19783,-0.1527 35.38474,-0.2896 75.9709,-0.3043 l 73.79303,-0.027 1.77579,0.6644 c 5.00645,1.8732 7.80493,6.2473 7.55054,11.802 -0.20906,4.5647 -2.58322,8.0052 -6.95289,10.0756 l -2.11949,1.004 -7.04,0.078 c -18.09003,0.2005 -142.9773,0.2159 -144.13788,0.018 z m -16.85966,-56.2451 c -3.32238,-0.7743 -6.31196,-3.296 -7.90315,-6.6664 -0.88884,-1.8827 -1.01231,-2.476 -1.01231,-4.8642 0,-2.3883 0.12347,-2.9816 1.01231,-4.8643 1.24491,-2.6369 3.21773,-4.6613 5.72061,-5.8701 l 1.90009,-0.9177 9.27999,-0.2114 c 5.104,-0.1163 45.352,-0.2665 89.44,-0.3339 l 80.16,-0.1226 1.77067,0.8696 c 2.26038,1.1101 4.5661,3.4158 5.67809,5.6781 0.77191,1.5704 0.87112,2.1367 0.87118,4.9723 6e-5,2.8046 -0.10622,3.4267 -0.86015,5.0354 -1.53212,3.2691 -4.68596,5.7833 -8.32653,6.6377 -1.83332,0.4302 -175.94213,1.0744 -177.7308,0.6575 z m 95.79257,-42.5988 c -2.81758,-0.6638 -5.44306,-2.4724 -7.06868,-4.8692 -2.2966,-3.3862 -2.14189,1.7524 -2.04951,-68.0754 l 0.0832,-62.86725 0.99509,-2.08 c 0.5473,-1.144 1.49385,-2.584 2.10345,-3.2 0.60959,-0.616 17.87381,-12.84103 38.36491,-27.16675 20.4911,-14.32571 37.37103,-26.14738 37.51094,-26.27039 0.13992,-0.123 -0.12908,-1.36197 -0.59777,-2.75325 -1.21617,-3.6101 -1.71327,-6.78969 -1.72125,-11.00961 -0.0284,-14.99623 9.80204,-27.93076 24.46464,-32.1898 3.89343,-1.13092 10.79718,-1.42256 14.98444,-0.63299 15.55812,2.93369 26.6537,15.68211 27.31396,31.38279 0.41897,9.96331 -2.89843,18.49079 -9.86557,25.35965 -2.91568,2.87458 -4.78525,4.22824 -8.27283,5.99002 -8.33085,4.20837 -17.71001,4.84507 -26.2834,1.78423 l -2.67661,-0.9556 -2.08,1.41857 c -1.144,0.78021 -17.488,12.19824 -36.32,25.37339 l -34.24,23.95483 -0.16,59.17746 -0.16,59.1775 -0.72612,1.5745 c -2.43155,5.2725 -8.14529,8.1621 -13.59885,6.8773 z m -124.23502,-25.9994 c -1.85289,-0.609 -2.6362,-1.0823 -4.25113,-2.5684 -2.60221,-2.3947 -3.17005,-3.6542 -4.41041,-9.7828 -3.36381,-16.6206 -11.04194,-30.4008 -23.22633,-41.6853 -6.58275,-6.0966 -16.93738,-17.7575 -23.09099,-26.004 -11.128979,-14.9141 -20.133399,-31.61019 -25.893479,-48.01195 -6.82925,-19.44623 -9.89676,-39.28686 -9.42485,-60.96 0.33797,-15.52216 2.09258,-28.42596 5.80888,-42.72 10.878,-41.84011 35.831369,-78.42272 72.093349,-105.69163 34.37236,-25.84793 70.91608,-40.20567 113.03495,-44.41055 7.00945,-0.69978 26.56966,-0.97931 34.15066,-0.48805 30.81398,1.99681 59.34951,9.6811 85.68935,23.07516 28.32195,14.40198 52.54249,34.61619 71.11891,59.35506 33.52979,44.65276 45.42679,101.84498 32.2056,154.82127 -0.60688,2.4317 -1.30771,5.48907 -1.55744,6.79416 -0.24969,1.30509 -0.88883,3.27552 -1.42032,4.37873 -0.53145,1.10322 -1.70733,4.02185 -2.61305,6.48585 -9.24573,25.15306 -25.48701,49.06685 -48.2522,71.04695 -13.01149,12.5628 -19.99539,25.8703 -23.21757,44.2397 -0.52169,2.9741 -1.07574,5.0715 -1.62707,6.1596 -4.42563,8.7335 -17.25111,8.3892 -21.33052,-0.5727 -1.05652,-2.321 -1.24646,-4.5065 -0.70856,-8.1528 1.97571,-13.3926 6.68494,-26.6769 13.41441,-37.8407 4.76521,-7.9053 8.02672,-11.8619 18.86045,-22.88 14.55225,-14.8 22.57961,-25.04251 30.58992,-39.03129 6.66416,-11.63789 12.74698,-26.67892 13.8697,-34.29554 1.40803,-9.55235 2.10163,-20.89136 2.10134,-34.35322 -1.9e-4,-10.26298 -0.21994,-14.46404 -1.14656,-21.92 -2.94461,-23.69383 -11.936,-47.73958 -25.65399,-68.60645 -10.32563,-15.70672 -24.15917,-30.58419 -39.62867,-42.61925 -26.02812,-20.24952 -57.97916,-33.593 -91.05357,-38.02601 -10.43914,-1.39917 -14.23848,-1.62832 -26.99082,-1.62789 -12.75132,3.2e-4 -16.56417,0.23039 -26.99082,1.62789 -24.19886,3.24341 -48.25427,11.27836 -68.84917,22.9969 -13.38248,7.61465 -23.91045,15.72105 -35.52882,27.35669 -8.68281,8.69573 -14.80504,16.04486 -21.07472,25.29811 -10.70972,15.80619 -17.52211,30.51318 -22.930719,49.50419 -6.05318,21.25429 -8.03702,32.31363 -7.73774,43.13582 0.13934,5.03904 0.32597,6.62114 1.49102,12.64 0.73246,3.784 1.61852,9.616 1.96902,12.96 0.3505,3.344 0.99157,8.37601 1.42461,11.18226 0.43304,2.80624 0.78734,5.92742 0.78734,6.93594 0,4.18476 6.624479,20.11557 12.966569,31.18252 2.56087,4.46872 7.99608,12.65323 11.36947,17.12053 5.08309,6.7314 9.86403,12.1211 18.8575,21.2588 4.85024,4.928 10.03081,10.472 11.51239,12.32 5.94209,7.4116 11.87881,17.8317 15.22343,26.72 3.16264,8.4046 5.80982,19.6411 5.50928,23.3852 -0.31501,3.9243 -2.96746,7.8032 -6.54981,9.5784 -1.54444,0.7653 -2.32298,0.9321 -4.72882,1.0129 -1.77715,0.06 -3.37016,-0.064 -4.16,-0.3241 z M 275.37941,950.49084 c -0.44,-0.0662 -1.376,-0.27852 -2.08,-0.47191 -0.704,-0.19339 -21.67682,-10.05557 -46.60627,-21.91595 -24.92944,-11.86038 -45.43939,-21.56433 -45.57768,-21.56433 -0.13828,0 -1.12547,0.56892 -2.19373,1.26428 -2.78999,1.81605 -6.95912,3.6951 -10.10231,4.55317 -2.40332,0.65609 -3.40926,0.74056 -8.64,0.72548 -5.51697,-0.0159 -6.1139,-0.0767 -8.76813,-0.89255 -5.85878,-1.80091 -10.51072,-4.49953 -14.42906,-8.37038 -6.93618,-6.85213 -10.5129,-16.08104 -9.98345,-25.76 0.79839,-14.59557 10.79073,-26.78606 25.11478,-30.6396 2.76593,-0.74411 3.68374,-0.83461 8.38586,-0.82687 4.37372,0.007 5.71007,0.12581 7.78565,0.69104 6.31854,1.72072 11.60632,4.72031 15.87507,9.00543 4.02202,4.03745 6.71015,8.62705 8.55231,14.60187 0.82509,2.67607 0.87901,3.21953 0.89255,8.99617 l 0.0144,6.14804 35.14814,16.73196 c 19.33148,9.20258 35.35148,16.77852 35.6,16.83542 0.38745,0.0887 0.45144,-6.09222 0.44892,-43.36 l -0.003,-43.46347 -2.67497,-1.22302 c -10.46926,-4.78668 -17.75986,-14.47383 -19.41567,-25.79796 -0.50248,-3.43654 -0.21764,-9.27257 0.61787,-12.65902 3.15907,-12.8042 13.46436,-22.52593 26.47949,-24.98003 4.2207,-0.79585 11.1066,-0.50307 14.99917,0.63773 5.91028,1.73213 10.56969,4.46136 14.74532,8.63699 4.15336,4.15336 6.84973,8.74291 8.66292,14.74531 0.81042,2.68285 0.87029,3.28525 0.87463,8.8 0.004,5.07915 -0.0926,6.26886 -0.67991,8.37614 -1.66529,5.97484 -4.73045,11.30103 -8.90731,15.47789 -2.47119,2.4712 -7.29554,5.8522 -9.61378,6.73755 l -1.40193,0.53538 -0.004,53.95652 c -0.004,58.43293 0.0772,55.65692 -1.7202,58.72396 -2.21133,3.77337 -7.33374,6.3556 -11.39599,5.74476 z m 760.15999,-5.26093 c -25.2791,-1.43259 -49.54489,-9.99792 -70.39999,-24.84975 -3.5763,-2.54691 -9.62832,-7.30459 -12.39715,-9.74593 l -1.19722,-1.05558 11.73157,-14.10887 11.7316,-14.10887 3.7789,3.09798 c 14.035,11.50621 29.00209,19.45582 43.74369,23.23404 14.6536,3.75567 29.6868,3.89598 40.6886,0.37975 10.836,-3.46319 18.2302,-10.38338 20.6157,-19.29403 1.2658,-4.72822 0.949,-11.16643 -0.783,-15.91208 -4.0007,-10.96231 -15.0694,-17.04505 -44.1527,-24.26397 -30.9217,-7.67524 -43.20959,-12.27882 -54.84289,-20.54644 -8.7818,-6.24103 -13.5848,-11.5686 -17.4646,-19.37197 -3.8615,-7.76625 -5.6474,-15.70274 -5.9918,-26.62555 -0.4205,-13.33952 1.9884,-24.25843 7.4407,-33.727 5.5262,-9.59686 15.0548,-18.06128 26.82,-23.82464 9.03449,-4.4257 17.68269,-6.95833 29.31859,-8.58593 5.7728,-0.80748 22.2895,-0.80673 28.8,10e-4 22.3878,2.77863 42.5197,10.24765 58.5824,21.73425 1.6597,1.1869 3.5497,2.6269 4.2001,3.2 l 1.1824,1.04201 -9.7661,13.76 c -5.3714,7.568 -9.8907,13.88799 -10.0429,14.04442 -0.1593,0.16373 -0.93,-0.29171 -1.8163,-1.07324 -5.5108,-4.85974 -16.1146,-10.3076 -26.7582,-13.74753 -11.674,-3.77296 -22.343,-5.37764 -33.6132,-5.05567 -8.4739,0.24208 -13.6525,1.24067 -19.5048,3.76106 -8.4128,3.62311 -13.0945,8.56358 -15.1533,15.99096 -0.81279,2.93218 -0.82399,11.12487 -0.019,14.08 1.9373,7.1146 6.239,12.1414 13.6692,15.9734 7.6916,3.9668 20.9603,8.34404 37.9434,12.51727 17.0172,4.18161 27.2326,7.7193 37.8966,13.12397 11.0521,5.6013 19.3609,12.25765 24.2621,19.43666 5.9632,8.73461 8.9803,18.9624 9.5422,32.34755 0.97,23.10532 -8.6112,41.83404 -28.0443,54.81928 -15.1564,10.12758 -35.8097,14.72401 -60,13.35313 z m 129.7601,-113.41127 v -111.2 h 29.2142 29.2142 l 33.4629,69.62064 c 18.4045,38.29135 33.5682,69.64735 33.6971,69.68 0.1288,0.0326 15.303,-31.29664 33.7204,-69.62064 l 33.4861,-69.68 h 29.0426 29.0425 v 111.2 111.20001 h -18.7195 -18.7194 l -0.081,-86.8 -0.08,-86.80001 -38.72,77.03522 -38.72,77.03522 -10.56,-0.0752 -10.56,-0.0752 -38.6274,-77.12 -38.6274,-77.12001 -0.013,86.96001 -0.012,86.96 h -18.72 -18.72 z m 283.9637,95.1224 c 3.9008,-8.84532 25.9517,-58.88639 49.0018,-111.2024 l 41.9094,-95.12 h 20.0464 20.0462 l 3.0737,6.96 c 1.6906,3.828 23.7265,53.832 48.9688,111.12 l 45.895,104.16001 -19.8721,0.0824 c -15.688,0.0651 -19.9246,-0.002 -20.1215,-0.32 -0.1372,-0.22134 -5.1783,-11.59844 -11.2024,-25.28244 l -10.953,-24.88 -55.858,0.008 -55.858,0.008 -11.0613,25.19237 -11.0614,25.19237 -20.023,0.0824 -20.0231,0.0824 7.0925,-16.0824 z m 151.2363,-69.42611 c 0,-0.73051 -40.1547,-91.42966 -40.3779,-91.20344 -0.2888,0.29261 -40.2621,90.95182 -40.2621,91.31416 0,0.15015 18.144,0.273 40.32,0.273 31.1301,0 40.32,-0.0875 40.32,-0.38372 z m 104,-25.69629 v -111.2 l 46.16,0.002 c 27.3091,9.6e-4 48.3162,0.13327 51.44,0.3242 11.4299,0.69859 20.8979,2.02946 29.6302,4.165 14.5978,3.56996 25.02,8.88774 32.9234,16.79874 8.7572,8.76551 14.017,20.371 16.3841,36.15058 0.8312,5.54092 0.8335,23.55287 0,29.12 -1.929,12.94147 -5.6022,22.64499 -11.9763,31.63704 -2.4963,3.52174 -8.8494,9.80655 -12.5651,12.43022 -5.8469,4.12854 -12.1366,7.30959 -19.1813,9.70102 -1.6671,0.56593 -3.0698,1.15558 -3.1172,1.31034 -0.047,0.15476 12.8673,18.25403 28.6992,40.2206 15.8319,21.96657 28.869,40.07457 28.9712,40.24 0.1154,0.18669 -8.834,0.29971 -23.593,0.29795 l -23.7789,-0.003 -26.56,-37.42515 -26.56,-37.42516 -24.72,-0.012 -24.7198,-0.0121 v 37.44 37.44 h -18.72 -18.72 z m 100.48,1.64753 c 11.3631,-1.35956 19.4104,-3.78665 24.838,-7.49119 2.5807,-1.76141 6.1016,-5.51241 7.8813,-8.39634 4.0048,-6.48953 5.7868,-14.31176 5.7592,-25.28 -0.021,-8.50777 -1.0954,-14.35723 -3.6401,-19.82668 -4.801,-10.31859 -13.5705,-14.87262 -33.3984,-17.34375 -1.872,-0.23331 -13.6599,-0.40589 -33.68,-0.49309 l -30.8,-0.13415 v 39.88236 39.88236 l 29.36,-0.14132 c 24.38,-0.11735 30.0928,-0.22899 33.68,-0.6582 z m 169.6,15.47248 v -94.08001 h -33.76 -33.76 v -17.12 -17.12 h 86.24 86.24 v 17.12 17.12 h -33.76 -33.76 v 94.08001 94.08 h -18.72 -18.72 z"
         id="path3053"
         sodipodi:nodetypes="csssscssssscccssssssccssscsssssssscsscssssssssscsssssssssssscsscccssscsssssssssssssssssscssssssssssssssssssssssssssssscccsssssssssscsssscssscsssssssssssccscccsscccsssssssssssscsscsscsssscssssssccccccsssccccccccccccccccccccsscccsscsssccccccccssssssccssssscsssssssccccccccccssscssscccssccccccccccccccccc" />
      <path
         style="fill:#0e0055;fill-opacity:1;stroke-width:0.32"
         d="m 1376.8274,1280.8388 c -30.6082,-2.2673 -55.4094,-13.5025 -75.6681,-34.2784 -10.1295,-10.3881 -17.5561,-21.5934 -22.8356,-34.4545 -3.884,-9.4616 -6.4068,-19.6922 -7.789,-31.5864 -0.6444,-5.5451 -0.5376,-23.5062 0.1741,-29.28 3.274,-26.5634 13.6704,-48.0472 32.2098,-66.5611 18.7412,-18.7153 40.9854,-29.4285 68.4871,-32.9848 6.6245,-0.8567 21.8885,-1.1984 28.64,-0.6412 23.1277,1.9085 43.456,9.8402 60.96,23.7852 4.2453,3.3822 10.8427,9.4532 13.0832,12.0395 1.7015,1.964 1.712,1.989 1.1172,2.6574 -5.4547,6.1295 -22.9434,25.065 -23.15,25.065 -0.1537,0 -1.821,-1.368 -3.7051,-3.04 -12.7155,-11.2841 -22.7777,-17.3655 -34.2253,-20.6855 -13.7323,-3.9824 -32.1111,-4.3478 -46.4924,-0.9244 -8.2601,1.9663 -17.8525,6.1026 -24.5476,10.585 -19.2696,12.9009 -30.5526,31.1156 -33.4902,54.0649 -0.6058,4.7327 -0.5128,17.2946 0.1647,22.24 2.0264,14.7929 7.4649,27.5699 16.4759,38.7078 10.2724,12.6972 24.7656,22.3967 39.4096,26.3745 17.108,4.6471 38.9916,2.9288 54.24,-4.2588 7.678,-3.6192 17.3485,-10.3446 25.65,-17.8383 l 2.9301,-2.645 12.0299,12.2713 c 6.6165,6.7493 12.03,12.4084 12.03,12.5759 0,0.6276 -11.52,11.6219 -15.52,14.8119 -16.4374,13.1083 -35.4181,21.0589 -56.16,23.5241 -5.0683,0.6024 -18.6718,0.8719 -24.0183,0.4759 z m 414.7383,-0.01 c -28.5023,-2.182 -53.4225,-12.053 -75.9989,-30.1036 -2.1126,-1.6891 -4.4674,-3.6334 -5.2329,-4.3206 l -1.3918,-1.2495 11.4216,-13.7594 c 6.2819,-7.5676 11.5882,-13.9285 11.7918,-14.1354 0.2822,-0.2866 1.2062,0.3088 3.8902,2.5071 18.2346,14.9348 36.8392,23.4388 56.32,25.7432 5.5499,0.6565 15.2641,0.643 19.84,-0.027 16.0188,-2.3475 26.7231,-10.5286 29.3172,-22.4067 0.608,-2.7837 0.5093,-9.0992 -0.1851,-11.84 -1.1692,-4.6153 -3.9639,-9.2854 -7.1448,-11.9392 -7.1813,-5.9914 -17.8509,-10.1354 -40.425,-15.7009 -15.2152,-3.7511 -29.3547,-8.0512 -36.4879,-11.0965 -9.6748,-4.1303 -19.8241,-10.8983 -25.6063,-17.0753 -7.4121,-7.9183 -11.7777,-18.0848 -13.2575,-30.8734 -0.6541,-5.6527 -0.4808,-17.0505 0.3265,-21.4747 3.2468,-17.7934 11.6025,-29.8822 27.4439,-39.7049 10.6727,-6.6178 24.5456,-10.9894 38.979,-12.283 4.7016,-0.4215 17.0305,-0.4273 21.6,-0.01 20.5614,1.8764 40.4721,8.2749 56.4153,18.1297 3.5592,2.2 9.7679,6.6649 10.6997,7.6946 0.5277,0.5831 0.1685,1.1457 -9.0586,14.1905 -5.2844,7.4709 -9.8033,13.7806 -10.0419,14.0217 -0.3666,0.3703 -0.7736,0.1648 -2.6242,-1.3253 -10.6084,-8.5415 -28.0624,-15.3042 -45.7103,-17.7109 -5.1512,-0.7025 -17.5549,-0.8032 -21.44,-0.1741 -9.6373,1.5606 -16.556,4.6215 -21.455,9.492 -2.9215,2.9045 -4.4775,5.5566 -5.6407,9.6144 -0.9651,3.3666 -1.04,10.5965 -0.1458,14.0656 1.4847,5.76 5.2779,10.904 10.5322,14.283 6.8509,4.4057 19.6428,8.8612 40.8693,14.235 11.1511,2.8231 14.1331,3.6762 20.96,5.9966 15.0454,5.1136 27.2846,11.8932 35.3217,19.5654 10.099,9.6405 15.0448,22.2083 15.6197,39.6915 0.7052,21.4467 -6.6509,37.8748 -22.7814,50.8769 -11.2561,9.073 -25.1866,14.5056 -42.72,16.6598 -4.7611,0.585 -18.7736,0.8443 -24,0.4442 z m 200.64,0 c -28.5023,-2.182 -53.4225,-12.053 -75.9989,-30.1036 -2.1126,-1.6891 -4.4674,-3.6334 -5.2329,-4.3206 l -1.3918,-1.2495 11.4216,-13.7594 c 6.2819,-7.5676 11.5882,-13.9285 11.7918,-14.1354 0.2823,-0.2866 1.2063,0.3088 3.8902,2.5071 18.2346,14.9348 36.8392,23.4388 56.32,25.7432 5.5499,0.6565 15.2641,0.643 19.84,-0.027 16.0188,-2.3475 26.7231,-10.5286 29.3172,-22.4067 0.608,-2.7837 0.5093,-9.0992 -0.1851,-11.84 -1.1692,-4.6153 -3.9639,-9.2854 -7.1448,-11.9392 -7.1813,-5.9914 -17.8509,-10.1354 -40.425,-15.7009 -15.2152,-3.7511 -29.3547,-8.0512 -36.4879,-11.0965 -9.6748,-4.1303 -19.8241,-10.8983 -25.6063,-17.0753 -7.4121,-7.9183 -11.7777,-18.0848 -13.2575,-30.8734 -0.6541,-5.6527 -0.4808,-17.0505 0.3265,-21.4747 3.2468,-17.7934 11.6025,-29.8822 27.4439,-39.7049 10.6727,-6.6178 24.5456,-10.9894 38.979,-12.283 4.7017,-0.4215 17.0306,-0.4273 21.6,-0.01 20.5614,1.8764 40.4721,8.2749 56.4153,18.1297 3.5592,2.2 9.7679,6.6649 10.6997,7.6946 0.5277,0.5831 0.1685,1.1457 -9.0586,14.1905 -5.2844,7.4709 -9.8033,13.7806 -10.0419,14.0217 -0.3666,0.3703 -0.7735,0.1648 -2.6242,-1.3253 -10.6084,-8.5415 -28.0624,-15.3042 -45.7103,-17.7109 -5.1511,-0.7025 -17.5549,-0.8032 -21.44,-0.1741 -9.6373,1.5606 -16.556,4.6215 -21.455,9.492 -2.9215,2.9045 -4.4775,5.5566 -5.6407,9.6144 -0.965,3.3666 -1.04,10.5965 -0.1458,14.0656 1.4847,5.76 5.2779,10.904 10.5322,14.283 6.851,4.4057 19.6428,8.8612 40.8693,14.235 11.1511,2.8231 14.1331,3.6762 20.96,5.9966 15.0454,5.1136 27.2846,11.8932 35.3217,19.5654 10.099,9.6405 15.0448,22.2083 15.6197,39.6915 0.7053,21.4467 -6.6508,37.8748 -22.7814,50.8769 -11.2561,9.073 -25.1866,14.5056 -42.72,16.6598 -4.7611,0.585 -18.7735,0.8443 -24,0.4442 z m -882.72,-0.3463 c -29.917,-2.2423 -54.7129,-13.6411 -75.2096,-34.5741 -19.1961,-19.6048 -29.3257,-42.1441 -31.5392,-70.1774 -0.8426,-10.6706 0.018,-25.1359 2.1046,-35.3745 5.6646,-27.7964 21.4333,-51.4838 45.9678,-69.0522 4.3453,-3.1115 9.2607,-5.9913 15.1563,-8.8798 11.2792,-5.526 22.6524,-8.9069 36.1374,-10.7425 6.987,-0.9511 22.5779,-1.1931 30.1763,-0.4684 28.4595,2.7145 51.9477,13.6657 71.6869,33.4235 18.8809,18.8987 29.1212,40.5786 32.1376,68.0394 0.5561,5.0623 0.5532,21.1692 0,26.24 -2.9261,26.5942 -12.811,47.9641 -30.7646,66.5093 -20.6089,21.2881 -45.8158,32.8742 -76.3287,35.0837 -5.1348,0.3718 -14.3692,0.359 -19.52,-0.027 z m 20.5436,-34.6999 c 14.7086,-1.9237 26.7203,-7.0392 38.1764,-16.2584 3.1949,-2.5712 9.5657,-8.9906 12.2738,-12.3677 6.9887,-8.7151 12.3265,-19.1976 14.943,-29.3454 4.1136,-15.9538 3.5895,-33.7248 -1.4418,-48.8946 -4.0343,-12.1639 -10.7245,-22.6468 -20.5329,-32.1727 -10.0691,-9.7792 -21.2017,-16.1071 -34.0205,-19.3372 -15.4849,-3.902 -33.2393,-2.9966 -47.6933,2.4323 -22.4958,8.4493 -41.3709,29.2973 -47.8133,52.811 -3.6736,13.408 -3.9745,29.4953 -0.8063,43.1167 5.9219,25.4615 26.2162,48.1848 50.4297,56.4655 4.9158,1.6811 10.0777,2.8938 15.002,3.5245 4.9375,0.6323 16.7379,0.6466 21.4832,0.026 z m -562.7837,-78.3831 v -111.2 h 43.60001 c 26.80585,0 45.32563,0.1283 48.08,0.3311 22.34698,1.6451 38.98928,6.1773 51.75405,14.0943 7.27168,4.51 14.26966,11.5188 18.8367,18.8658 8.13037,13.0792 12.10138,32.095 10.9065,52.2275 -0.60774,10.2401 -1.80726,17.0059 -4.41094,24.88 -7.20996,21.8044 -23.48554,35.5536 -49.94861,42.1955 -8.60951,2.1609 -18.42413,3.5646 -29.3777,4.2018 -2.992,0.1741 -15.916,0.3179 -28.72,0.3196 h -23.28 v 32.64 32.64 h -18.72 -18.72001 v -111.2 z m 87.52001,11.6698 c 17.3063,-0.869 28.46128,-4.3999 35.35213,-11.1898 5.52605,-5.4451 9.22214,-13.1086 10.94083,-22.6846 0.95149,-5.3015 1.18589,-16.3971 0.45207,-21.4009 -1.03684,-7.0701 -3.4441,-13.211 -6.99124,-17.8345 -6.85411,-8.934 -20.52048,-14.1218 -40.87379,-15.5159 -2.552,-0.1748 -14.612,-0.3192 -26.8,-0.3209 h -22.16 v 44.64 44.64 h 21.84 c 12.012,0 24.72,-0.1491 28.24,-0.3258 z m 130.40001,-11.6829 v -111.2131 l 50,0.1129 c 44.16064,0.1 50.57926,0.1758 54.96,0.6513 17.98058,1.9515 29.26746,4.7315 39.93184,9.8354 11.53504,5.5205 19.31495,13.0426 24.82103,23.9986 5.41494,10.7746 7.66377,21.7574 7.66377,37.428 0,15.6314 -2.35721,27.1217 -7.7792,37.92 -4.68374,9.328 -11.27596,16.7026 -20.15744,22.5498 -3.90694,2.5722 -10.95113,5.9889 -15.83081,7.6787 -2.10698,0.7295 -3.87821,1.3738 -3.93607,1.4317 -0.0579,0.058 12.93402,18.2019 28.87085,40.3202 15.9368,22.1182 28.97603,40.279 28.97603,40.3573 0,0.078 -10.71126,0.1423 -23.80284,0.1423 h -23.80282 l -26.54474,-37.36 -26.5447,-37.36 -24.69245,-0.082 -24.69245,-0.082 v 37.4419 37.442 h -18.72 -18.72 z m 92.96,2.0871 c 29.02855,-1.581 40.87661,-9.2959 44.98512,-29.2922 0.84471,-4.1111 1.1977,-14.954 0.63683,-19.5597 -1.6278,-13.3665 -6.92233,-21.2331 -17.07222,-25.366 -4.97171,-2.0244 -10.984,-3.4037 -19.10973,-4.3838 -3.62067,-0.4367 -9.22822,-0.5433 -34.64,-0.6584 l -30.32,-0.1372 v 39.8616 39.8617 l 24.88,-0.01 c 13.684,0 27.472,-0.1473 30.64,-0.3199 z m 640.80008,-2.074 v -111.2 h 78.08 78.08 v 17.6 17.6 h -59.36 -59.36 v 29.44 29.44 h 53.28 53.28 v 16.64 16.64 h -53.28 -53.28 v 29.92 29.92 h 61.28 61.28 v 17.6 17.6 h -80 -80 z M 566.2856,870.27949 v -72.32001 h 18.98938 18.98935 l 21.70416,45.2 c 11.93731,24.86001 21.78953,45.30226 21.89389,45.42724 0.10432,0.12497 9.9952,-20.17903 21.97971,-45.12001 l 21.78998,-45.34723 18.92679,-0.0825 18.92675,-0.0825 v 72.32254 72.32254 h -12.16 -12.16 v -56.21334 c 0,-30.91733 -0.108,-56.10591 -0.24,-55.97462 -0.132,0.13129 -11.49088,22.58329 -25.24198,49.89334 l -25.00196,49.65462 -6.86537,0.0861 -6.86541,0.0861 -25.09264,-50.0061 -25.09264,-50.0061 -0.0809,56.24001 -0.0809,56.24 h -12.1591 -12.15911 z m 235.52002,43.83094 v -28.48905 l -26.89041,-43.75095 -26.8904,-43.75095 13.05008,-0.0837 c 7.17757,-0.046 13.20928,-0.0226 13.40384,0.0521 0.19453,0.0747 9.18266,14.8363 19.97361,32.80365 10.79094,17.96736 19.70419,32.66793 19.8072,32.66793 0.10304,0 9.04275,-14.76 19.86608,-32.80001 l 19.67875,-32.8 h 13.38672 13.38672 l -0.74281,1.2 c -0.40858,0.66 -12.51632,20.35196 -26.90612,43.75992 l -26.16326,42.55991 v 28.56009 28.56009 h -12.48 -12.48 z"
         id="path845"
         sodipodi:nodetypes="sssssssssssssssssssssscsscsscsscsssscsssssssssscssssssssssssssssscccsscsscscsssssssssscssssssssssssssssscccssssssssscssccsssssssssssssccscsssssscccccccccsssssccccscccccssssssssssscccccccccccssssscccccccccccccccccccccccccccccccccccssscccccccsssccccccccccccccssssscccsscccccc" />
    </g>
  </g>
</svg>
