<?xml version="1.0" encoding="UTF-8" standalone="no"?>
<!-- Created with Inkscape (http://www.inkscape.org/) -->

<svg
   width="1296"
   height="250"
   viewBox="0 0 342.89999 66.145835"
   version="1.1"
   id="svg5"
   inkscape:version="1.1 (c4e8f9ed74, 2021-05-24)"
   sodipodi:docname="logo_sibelianthe.svg"
   xmlns:inkscape="http://www.inkscape.org/namespaces/inkscape"
   xmlns:sodipodi="http://sodipodi.sourceforge.net/DTD/sodipodi-0.dtd"
   xmlns="http://www.w3.org/2000/svg"
   xmlns:svg="http://www.w3.org/2000/svg">
  <sodipodi:namedview
     id="namedview7"
     pagecolor="#ffffff"
     bordercolor="#666666"
     borderopacity="1.0"
     inkscape:pageshadow="2"
     inkscape:pageopacity="0.0"
     inkscape:pagecheckerboard="0"
     inkscape:document-units="mm"
     showgrid="false"
     showguides="true"
     inkscape:guide-bbox="true"
     units="px"
     inkscape:zoom="0.58796295"
     inkscape:cx="1184.5985"
     inkscape:cy="-227.05512"
     inkscape:window-width="1852"
     inkscape:window-height="1051"
     inkscape:window-x="0"
     inkscape:window-y="0"
     inkscape:window-maximized="1"
     inkscape:current-layer="layer1" />
  <defs
     id="defs2" />
  <g
     inkscape:label="Layer 1"
     inkscape:groupmode="layer"
     id="layer1">
    <g
       id="g25602"
       transform="matrix(1.25,0,0,1.25,-8.2682307,-8.2682312)">
      <g
         id="g14429"
         transform="matrix(0.80000021,0,0,0.80000016,-3.8775894,-178.21798)">
        <path
           id="rect2601"
           style="fill:#ffffff;fill-opacity:1;stroke-width:0.3995;stroke-linejoin:round"
           d="m 21.534153,257.56551 -6.548102,6.54808 6.5481,6.5481 -0.935397,0.93541 -7.48354,-7.48354 7.4835,-7.48351 z"
           sodipodi:nodetypes="ccccccc" />
        <rect
           style="fill:#ffffff;fill-opacity:1;stroke-width:0.3995;stroke-linejoin:round"
           id="rect3855"
           width="33.072918"
           height="33.072918"
           x="247.57709"
           y="-62.724579"
           transform="rotate(90)" />
        <rect
           style="fill:#ff9500;fill-opacity:1;stroke-width:0.3995;stroke-linejoin:round"
           id="rect3853"
           width="33.072918"
           height="33.072918"
           x="137.5601"
           y="-235.95288"
           transform="rotate(135)" />
        <rect
           style="fill:#e27600;fill-opacity:1;stroke-width:0.3;stroke-linejoin:round"
           id="rect11649"
           width="16.536463"
           height="16.893406"
           x="219.41641"
           y="145.64984"
           transform="rotate(45)" />
        <rect
           style="fill:#3c404e;fill-opacity:1;stroke-width:0.144293;stroke-linejoin:round"
           id="rect962"
           width="11.945436"
           height="11.945436"
           x="-52.160847"
           y="-270.08627"
           transform="scale(-1)" />
        <path
           id="path11506"
           style="fill:#ffffff;fill-opacity:1;stroke-width:0.3995;stroke-linejoin:round"
           d="m 70.842097,270.66162 6.5481,-6.5481 -6.548106,-6.54811 0.935396,-0.93541 7.483543,7.48356 -7.4835,7.4835 z"
           sodipodi:nodetypes="ccccccc" />
        <path
           id="path11508"
           style="fill:#ffffff;fill-opacity:1;stroke-width:0.3995;stroke-linejoin:round"
           d="m 52.736175,239.4596 -6.548105,-6.54811 -6.548092,6.54811 -0.935416,-0.93541 7.483564,-7.48353 7.483507,7.48349 z"
           sodipodi:nodetypes="ccccccc" />
        <path
           id="path11510"
           style="fill:#ffffff;fill-opacity:1;stroke-width:0.3995;stroke-linejoin:round"
           d="m 39.640065,288.76752 6.548098,6.5481 6.548099,-6.5481 0.935408,0.9354 -7.483554,7.48356 -7.483505,-7.48352 z"
           sodipodi:nodetypes="ccccccc" />
      </g>
      <g
         id="g25576">
        <g
           aria-label="SIBELIANTHE"
           transform="scale(1.1507285,0.86901469)"
           id="text2209"
           style="font-size:31.6722px;line-height:1.25;font-family:'Fira Sans';-inkscape-font-specification:'Fira Sans';letter-spacing:0px;word-spacing:0px;fill:#ffffff;stroke-width:1.69672">
          <path
             d="m 71.703437,26.672525 c -4.022369,0 -6.872867,2.343743 -6.872867,5.700996 0,3.388925 2.217054,5.004207 6.461128,6.302768 3.705648,1.140199 4.719158,2.090365 4.719158,4.212402 0,2.628793 -2.122037,3.895681 -4.687485,3.895681 -2.375415,0 -4.085714,-0.85515 -5.732668,-2.185382 l -1.646955,1.836987 c 1.805316,1.773644 4.275747,2.818826 7.411295,2.818826 4.909191,0 7.791361,-2.660465 7.791361,-6.461128 0,-4.180731 -2.977187,-5.542635 -6.461129,-6.61949 -3.927353,-1.203544 -4.782502,-2.090365 -4.782502,-3.927353 0,-2.090365 1.741971,-3.103875 3.927353,-3.103875 1.805315,0 3.325581,0.570099 4.972535,1.900332 l 1.646954,-1.836988 c -1.836987,-1.646954 -3.737319,-2.533776 -6.746178,-2.533776 z"
             id="path17411" />
          <path
             d="m 86.589314,27.052592 h -3.008859 v 21.822145 h 3.008859 z"
             id="path17413" />
          <path
             d="m 102.55204,37.346056 c 2.12204,-0.443411 4.08572,-2.090365 4.08572,-4.782502 0,-3.800664 -3.16722,-5.510962 -8.551496,-5.510962 h -5.162569 v 21.822145 h 6.017718 c 5.067557,0 8.646507,-1.58361 8.646507,-6.207751 0,-3.705648 -2.5021,-4.877519 -5.03588,-5.32093 z m -4.149054,-7.91805 c 3.230564,0 5.162564,0.665117 5.162564,3.357254 0,2.31207 -1.90033,3.515614 -4.339087,3.515614 h -3.293909 v -6.872868 z m 0.538427,17.039644 h -3.008859 v -7.854706 h 3.578959 c 2.628797,0 4.909187,0.981838 4.909187,4.054042 0,3.16722 -2.31207,3.800664 -5.479287,3.800664 z"
             id="path17415" />
          <path
             d="m 123.99411,27.052592 h -11.81373 v 21.822145 h 12.06711 V 46.46765 h -9.05825 v -7.474639 h 7.34795 v -2.407088 h -7.34795 v -7.126244 h 8.45648 z"
             id="path17417" />
          <path
             d="m 132.13387,27.052592 h -3.00886 v 21.822145 h 11.6237 l 0.34839,-2.628793 h -8.96323 z"
             id="path17419" />
          <path
             d="m 147.9066,27.052592 h -3.00886 v 21.822145 h 3.00886 z"
             id="path17421" />
          <path
             d="m 167.28446,48.874736 h 2.63488 l -7.48462,-21.822145 h -2.46163 l -7.40179,21.822145 h 2.59157 l 5.94719,-18.263344"
             id="path17423"
             sodipodi:nodetypes="ccccccc"
             style="fill:#ff9500;fill-opacity:1" />
          <path
             d="m 187.68682,27.052592 h -2.81883 v 11.908746 c 0,2.660465 0.3484,6.144407 0.41174,6.651162 L 176.3165,27.052592 h -3.92735 v 21.822145 h 2.81882 V 38.866322 c 0,-4.054042 -0.25337,-6.714506 -0.41174,-8.519822 l 8.86822,18.528237 h 4.02237 z"
             id="path17425" />
          <path
             d="m 206.91181,27.052592 h -15.58273 v 2.565448 h 6.20775 v 19.256697 h 3.00886 V 29.61804 h 6.04939 z"
             id="path17427" />
          <path
             d="m 222.58948,48.874737 h 3.00886 V 27.052592 h -3.00886 v 9.121593 h -9.18494 v -9.121593 h -3.00885 v 21.822145 h 3.00885 V 38.644616 h 9.18494 z"
             id="path17429" />
          <path
             d="m 243.74646,27.052592 h -11.81373 v 21.822145 h 12.06711 V 46.46765 h -9.05825 v -7.474639 h 7.34795 v -2.407088 h -7.34795 v -7.126244 h 8.45648 z"
             id="path17431" />
        </g>
        <text
           xml:space="preserve"
           style="font-style:normal;font-variant:normal;font-weight:normal;font-stretch:normal;font-size:9.14843px;line-height:1.25;font-family:'Fira Sans';-inkscape-font-specification:'Fira Sans';letter-spacing:0px;word-spacing:0px;fill:#ffffff;fill-opacity:1;stroke-width:0.490093"
           x="68.00058"
           y="57.661423"
           id="text22068"
           transform="scale(1.084886,0.92175586)"><tspan
             sodipodi:role="line"
             id="tspan22066"
             style="font-style:normal;font-variant:normal;font-weight:normal;font-stretch:normal;font-family:'Fira Sans';-inkscape-font-specification:'Fira Sans';fill:#ffffff;fill-opacity:1;stroke-width:0.490093"
             x="68.00058"
             y="57.661423">Innovation, Management</tspan></text>
      </g>
    </g>
  </g>
</svg>
